HIERARCHY
ROOT Hips
{
	OFFSET 0.000000 0.000000 0.000000
	CHANNELS 6 Xposition Yposition Zposition Zrotation Yrotation Xrotation
	JOINT LHipJoint
	{
		OFFSET 0.000000 0.000000 0.000000
		CHANNELS 3 Zrotation Yrotation Xrotation
		JOINT LeftUpLeg
		{
			OFFSET 1.363060 -1.794630 0.839290
			CHANNELS 3 Zrotation Yrotation Xrotation
			JOINT LeftLeg
			{
				OFFSET 2.448110 -6.726130 0.000000
				CHANNELS 3 Zrotation Yrotation Xrotation
				JOINT LeftFoot
				{
					OFFSET 2.562200 -7.039590 0.000000
					CHANNELS 3 Zrotation Yrotation Xrotation
					JOINT LeftToeBase
					{
						OFFSET 0.157640 -0.433110 2.322550
						CHANNELS 3 Zrotation Yrotation Xrotation
						End Site
						{
							OFFSET 0.000000 0.000000 0.000000
						}
					}
				}
			}
		}
	}
	JOINT RHipJoint
	{
		OFFSET 0.000000 0.000000 0.000000
		CHANNELS 3 Zrotation Yrotation Xrotation
		JOINT RightUpLeg
		{
			OFFSET -1.305520 -1.794630 0.839290
			CHANNELS 3 Zrotation Yrotation Xrotation
			JOINT RightLeg
			{
				OFFSET -2.542530 -6.985550 0.000000
				CHANNELS 3 Zrotation Yrotation Xrotation
				JOINT RightFoot
				{
					OFFSET -2.568260 -7.056230 0.000000
					CHANNELS 3 Zrotation Yrotation Xrotation
					JOINT RightToeBase
					{
						OFFSET -0.164730 -0.452590 2.363150
						CHANNELS 3 Zrotation Yrotation Xrotation
						End Site
						{
							OFFSET 0.000000 0.000000 0.000000
						}
					}
				}
			}
		}
	}
	JOINT LowerBack
	{
		OFFSET 0.000000 0.000000 0.000000
		CHANNELS 3 Zrotation Yrotation Xrotation
		JOINT Spine
		{
			OFFSET 0.028270 2.035590 -0.193380
			CHANNELS 3 Zrotation Yrotation Xrotation
			JOINT Spine1
			{
				OFFSET 0.056720 2.048850 -0.042750
				CHANNELS 3 Zrotation Yrotation Xrotation
				JOINT Neck
				{
					OFFSET 0.000000 0.000000 0.000000
					CHANNELS 3 Zrotation Yrotation Xrotation
					JOINT Neck1
					{
						OFFSET -0.054170 1.746240 0.172020
						CHANNELS 3 Zrotation Yrotation Xrotation
						JOINT Head
						{
							OFFSET 0.104070 1.761360 -0.123970
							CHANNELS 3 Zrotation Yrotation Xrotation
							End Site
							{
								OFFSET 0.000000 0.000000 0.000000
							}
						}
					}
				}
				JOINT LeftShoulder
				{
					OFFSET 0.000000 0.000000 0.000000
					CHANNELS 3 Zrotation Yrotation Xrotation
					JOINT LeftArm
					{
						OFFSET 3.362410 1.200890 -0.311210
						CHANNELS 3 Zrotation Yrotation Xrotation
						JOINT LeftForeArm
						{
							OFFSET 4.983000 -0.000000 -0.000000
							CHANNELS 3 Zrotation Yrotation Xrotation
							JOINT LeftHand
							{
								OFFSET 3.483560 -0.000000 -0.000000
								CHANNELS 3 Zrotation Yrotation Xrotation
								JOINT LeftFingerBase
								{
									OFFSET 0.000000 0.000000 0.000000
									CHANNELS 3 Zrotation Yrotation Xrotation
									JOINT LeftHandIndex1
									{
										OFFSET 0.715260 -0.000000 -0.000000
										CHANNELS 3 Zrotation Yrotation Xrotation
										End Site
										{
											OFFSET 0.000000 0.000000 0.000000
										}
									}
								}
								JOINT LThumb
								{
									OFFSET 0.000000 0.000000 0.000000
									CHANNELS 3 Zrotation Yrotation Xrotation
									End Site
									{
										OFFSET 0.000000 0.000000 0.000000
									}
								}
							}
						}
					}
				}
				JOINT RightShoulder
				{
					OFFSET 0.000000 0.000000 0.000000
					CHANNELS 3 Zrotation Yrotation Xrotation
					JOINT RightArm
					{
						OFFSET -3.136600 1.374050 -0.404650
						CHANNELS 3 Zrotation Yrotation Xrotation
						JOINT RightForeArm
						{
							OFFSET -5.241900 -0.000000 -0.000000
							CHANNELS 3 Zrotation Yrotation Xrotation
							JOINT RightHand
							{
								OFFSET -3.444170 -0.000000 -0.000000
								CHANNELS 3 Zrotation Yrotation Xrotation
								JOINT RightFingerBase
								{
									OFFSET 0.000000 0.000000 0.000000
									CHANNELS 3 Zrotation Yrotation Xrotation
									JOINT RightHandIndex1
									{
										OFFSET -0.622530 -0.000000 -0.000000
										CHANNELS 3 Zrotation Yrotation Xrotation
										End Site
										{
											OFFSET 0.000000 0.000000 0.000000
										}
									}
								}
								JOINT RThumb
								{
									OFFSET 0.000000 0.000000 0.000000
									CHANNELS 3 Zrotation Yrotation Xrotation
									End Site
									{
										OFFSET 0.000000 0.000000 0.000000
									}
								}
							}
						}
					}
				}
			}
		}
	}
}
MOTION
Frames: 11
Frame Time: 0.008333
0.001420 0.004800 0.121656 0.204675 0.150088 -0.049792 0.015395 0.032432 0.042064 -0.246620 -0.286290 0.092481 0.138526 0.229920 0.722066 0.026728 -0.424312 -0.446004 -0.074658 0.336577 0.953043 -0.039365 0.025222 -0.060892 -0.224445 0.129213 -0.523265 -0.271521 -0.396111 1.339862 -0.057512 -0.601018 1.626601 -0.005427 0.018836 -0.054363 -0.293121 -0.098807 -0.054740 -0.027430 -0.064707 0.035175 0.059225 -0.040429 0.119617 -0.048092 -0.067732 -0.109167 0.117336 -0.099028 -0.061164 0.055184 -0.047066 -0.000593 0.001957 -0.012499 -0.006062 0.017531 -0.251763 -0.849245 0.033105 -0.039913 -0.006608 0.004245 0.020718 0.580603 -0.156214 -0.013371 0.038674 0.000000 0.000000 0.000000 -0.099605 -0.008528 0.079310 -0.014074 -0.007197 0.021512 0.113298 -0.332573 -0.143758 0.416594 -0.174468 0.300743 -0.013148 -0.007236 -0.072433 -0.191757 -0.060745 0.121679 -0.000000 0.000000 0.000000 -0.157890 -0.105169 0.040362
0.028653 0.173535 0.437428 0.257634 0.229189 0.116188 0.137545 0.092056 0.096646 -0.144785 -0.191520 0.156122 0.191846 0.384375 1.141050 0.055702 -0.274712 -0.238354 -0.043638 0.410213 1.171909 0.065834 0.054676 0.015854 0.095697 0.263391 -0.347827 -0.240511 -0.370381 1.596882 -0.021876 -0.406119 1.874730 0.022339 0.094013 0.188283 -0.213760 -0.054786 0.049706 0.011644 -0.008181 0.097932 0.104084 -0.008308 0.199102 0.009986 -0.022036 -0.059870 0.177843 -0.039648 0.099222 0.120708 -0.017593 0.106899 0.081552 0.059385 0.008753 0.060411 -0.050331 -0.428685 0.170310 0.027063 0.019903 0.013216 0.045840 0.970317 0.102893 0.296359 0.184754 -0.002453 0.000000 0.000000 0.455294 0.870950 0.749684 0.091118 0.065222 0.044765 0.822823 -0.149017 0.204518 0.573354 0.199747 0.421273 0.010693 0.014098 0.089936 1.093594 0.542739 1.145665 0.056987 0.000000 0.000000 1.210725 0.528488 1.415690
-0.035429 0.212361 0.246861 0.200104 0.158191 0.055569 0.062483 0.056367 0.062645 -0.306145 -0.298994 -0.226184 0.157675 0.352573 1.059573 0.022937 -0.378423 -0.355743 -0.067361 0.328806 0.917332 -0.035030 0.008603 -0.037155 0.008519 0.184382 -0.527402 -0.275546 -0.455117 1.535058 -0.061573 -0.569045 1.619417 -0.008540 0.017129 -0.020519 -0.257134 -0.073185 -0.041081 -0.009346 -0.031834 0.020522 0.060864 -0.020457 0.099704 -0.087281 -0.088037 -0.206107 0.153691 -0.122010 0.055822 0.069625 -0.057129 0.069953 -0.001672 0.000012 -0.009053 -0.682539 -0.125451 -0.748568 0.111168 -0.175665 -0.020262 -0.000280 0.019730 0.706513 0.001778 0.054640 0.071899 -0.057556 0.000000 0.000000 -0.134427 0.343056 0.133872 0.007788 -0.000822 0.017885 0.783876 -0.270475 0.103480 0.234502 0.120683 0.233895 -0.004998 -0.006601 -0.124482 -0.262015 -0.021397 0.189702 0.061172 0.000000 0.000000 -0.014154 -0.317986 0.120662
-0.156151 0.180262 -0.241004 0.104372 0.021675 -0.076537 -0.074649 -0.010396 -0.000797 -0.552782 -0.471910 -0.750688 0.095180 0.257576 0.808922 -0.030753 -0.567035 -0.587538 -0.110356 0.192362 0.496525 -0.209896 -0.064629 -0.137140 -0.227972 0.027426 -0.836364 -0.334424 -0.579864 1.352356 -0.129757 -0.866723 1.180333 -0.061887 -0.117996 -0.400363 -0.345208 -0.115235 -0.205998 -0.053160 -0.086103 -0.110173 -0.015843 -0.049629 -0.067967 -0.243755 -0.196581 -0.427353 0.097037 -0.258650 -0.065591 -0.025910 -0.122836 -0.021806 -0.146707 -0.109148 -0.039229 -1.722625 -0.305155 -1.348380 -0.022282 -0.480297 -0.085618 -0.022251 -0.025662 0.196281 -0.235186 -0.395222 -0.138436 -0.132481 0.000000 0.000000 -1.155420 -0.714582 -0.966076 -0.146544 -0.119062 -0.027890 0.462856 -0.506759 -0.166716 -0.291123 -0.129202 -0.069489 -0.035561 -0.043108 -0.480612 -2.611037 -1.024839 -1.510665 0.045504 0.000000 0.000000 -2.214782 -1.721322 -2.178230
-0.177689 0.340550 0.020949 0.162668 0.152530 0.096067 0.052320 0.057910 0.067235 -0.420592 -0.353410 -0.647882 0.156126 0.436278 1.292539 0.004234 -0.398556 -0.334397 -0.071708 0.289247 0.781964 -0.069115 -0.022095 -0.035575 0.176399 0.205307 -0.588155 -0.291571 -0.534698 1.682388 -0.076856 -0.596135 1.508928 -0.021845 -0.011154 -0.075508 -0.250052 -0.059887 -0.065940 -0.002993 -0.014367 -0.022024 0.044883 -0.008554 0.046116 -0.156877 -0.130249 -0.337866 0.175157 -0.171459 0.134712 0.062180 -0.080482 0.113438 -0.035750 -0.012037 -0.018173 -1.533303 -0.052194 -0.790615 0.151495 -0.363740 -0.046853 -0.009205 0.008594 0.703079 0.088406 0.013323 0.053214 -0.125680 0.000000 0.000000 -0.398598 0.411005 -0.070857 -0.008244 -0.022229 0.004128 1.303253 -0.270288 0.259143 -0.048560 0.323488 0.103906 -0.005006 -0.014622 -0.254118 -0.875271 -0.221554 -0.150117 0.111467 0.000000 0.000000 -0.408048 -0.837602 -0.355445
-0.228588 0.429458 0.009632 0.158860 0.218527 0.194888 0.115819 0.095160 0.105686 -0.372441 -0.299490 -0.687726 0.189001 0.555711 1.617868 0.019708 -0.306930 -0.177279 -0.049169 0.342391 0.931515 0.009546 -0.002329 0.025944 0.452591 0.316612 -0.450538 -0.268397 -0.524167 1.915361 -0.046787 -0.424347 1.711110 0.002653 0.055488 0.141133 -0.182206 -0.019721 0.026454 0.032365 0.037260 0.031059 0.083559 0.021414 0.116941 -0.108593 -0.091696 -0.300360 0.231050 -0.121849 0.280961 0.118870 -0.056137 0.210102 0.031666 0.049762 -0.005895 -1.555483 0.126315 -0.432938 0.272293 -0.319841 -0.026050 -0.002175 0.029205 1.035257 0.315721 0.274344 0.176085 -0.132901 0.000000 0.000000 0.052568 1.160411 0.480581 0.079462 0.037380 0.022683 1.942668 -0.115278 0.565255 0.061435 0.654919 0.194972 0.015034 0.002668 -0.127998 0.155643 0.270322 0.681873 0.163334 0.000000 0.000000 0.706926 -0.348658 0.758373
-0.272930 0.512540 -0.019899 0.149912 0.273596 0.243463 0.136049 0.108638 0.120362 -0.388691 -0.294914 -0.834692 0.201249 0.629216 1.819477 0.019250 -0.281793 -0.104383 -0.040806 0.353293 0.945950 0.033954 -0.002453 0.053122 0.620105 0.371488 -0.406753 -0.262393 -0.543220 2.064583 -0.036540 -0.350194 1.765782 0.010327 0.078564 0.226026 -0.149921 0.002517 0.062800 0.050703 0.066101 0.044512 0.097341 0.038708 0.135591 -0.105256 -0.085444 -0.320227 0.261844 -0.113025 0.368533 0.142024 -0.051709 0.264306 0.051217 0.073241 -0.003134 -1.807103 0.224080 -0.290138 0.335758 -0.354454 -0.024655 -0.001668 0.034882 1.177391 0.438293 0.374833 0.223387 -0.155468 0.000000 0.000000 0.171379 1.500988 0.658390 0.112544 0.056784 0.026736 2.365563 -0.048158 0.741363 0.027904 0.855087 0.196896 0.023616 0.007770 -0.111140 0.421659 0.424323 0.940613 0.199913 0.000000 0.000000 1.073990 -0.286564 1.102692
-0.317177 0.595369 -0.050466 0.140990 0.328610 0.291671 0.156322 0.122179 0.135189 -0.404365 -0.289978 -0.980731 0.213659 0.703250 2.022510 0.018979 -0.255868 -0.030570 -0.032288 0.364589 0.961612 0.058861 -0.002419 0.080631 0.788693 0.426932 -0.361920 -0.256199 -0.561974 2.214859 -0.026047 -0.274690 1.822349 0.018221 0.102179 0.312216 -0.117302 0.024911 0.099586 0.069153 0.095082 0.058171 0.111243 0.056056 0.154461 -0.101727 -0.079060 -0.339830 0.292764 -0.103962 0.456448 0.165363 -0.047173 0.318739 0.071023 0.096901 -0.000328 -2.057657 0.322227 -0.146347 0.399481 -0.388695 -0.023169 -0.001130 0.040629 1.320419 0.561349 0.476029 0.271016 -0.177969 0.000000 0.000000 0.291546 1.843207 0.837705 0.145848 0.076349 0.030849 2.789365 0.019334 0.918024 -0.005027 1.055795 0.199181 0.032244 0.012921 -0.093850 0.690716 0.579658 1.201600 0.236553 0.000000 0.000000 1.444056 -0.222738 1.450148
-0.357989 0.686536 -0.047214 0.144656 0.406387 0.360460 0.194722 0.145372 0.160066 -0.383942 -0.257310 -1.065668 0.238177 0.802779 2.293957 0.027148 -0.195566 0.088838 -0.016092 0.397157 1.044302 0.113326 0.008476 0.127316 1.020160 0.515026 -0.262797 -0.239486 -0.562972 2.418791 -0.002907 -0.138319 1.963434 0.036411 0.152426 0.478363 -0.063346 0.058743 0.172130 0.098675 0.138744 0.097426 0.141229 0.081726 0.206196 -0.069443 -0.052009 -0.323283 0.339283 -0.069182 0.581332 0.209673 -0.030325 0.398462 0.119321 0.143321 0.008108 -2.173853 0.467636 0.123669 0.496410 -0.377634 -0.010488 0.003163 0.054900 1.572116 0.744299 0.668460 0.361325 -0.191835 0.000000 0.000000 0.598602 2.414583 1.226399 0.209821 0.118429 0.043091 3.334509 0.136068 1.167178 0.041987 1.329621 0.250929 0.047211 0.024796 -0.016268 1.381183 0.921260 1.777787 0.281598 0.000000 0.000000 2.226070 0.076167 2.221342
-0.386905 0.791224 0.008130 0.161261 0.499442 0.447254 0.248898 0.177053 0.191997 -0.340418 -0.206705 -1.109156 0.272161 0.923314 2.622000 0.042279 -0.107409 0.245868 0.006426 0.448207 1.182792 0.191917 0.028204 0.188722 1.296448 0.626726 -0.124410 -0.215696 -0.552046 2.657901 0.028555 0.035732 2.154928 0.060868 0.218884 0.691576 0.002635 0.098628 0.263609 0.133806 0.189641 0.149504 0.179252 0.111455 0.273941 -0.023251 -0.014951 -0.289412 0.393348 -0.022002 0.724057 0.263939 -0.007686 0.490547 0.181547 0.200824 0.019274 -2.223901 0.636313 0.455548 0.609712 -0.343871 0.007806 0.009339 0.073465 1.878789 0.957550 0.907391 0.473448 -0.201257 0.000000 0.000000 1.002182 3.104628 1.723507 0.289615 0.172108 0.059547 3.942559 0.278314 1.453861 0.130534 1.641435 0.328356 0.065457 0.040161 0.092588 2.290610 1.359673 2.518165 0.331020 0.000000 0.000000 3.223243 0.497853 3.213748
-0.427375 0.873579 -0.021849 0.161015 0.569042 0.503743 0.276801 0.191776 0.207165 -0.346261 -0.194172 -1.237416 0.288651 1.004008 2.843169 0.044054 -0.072712 0.332303 0.017065 0.465376 1.217437 0.225219 0.031337 0.221492 1.481414 0.691411 -0.064209 -0.206447 -0.566033 2.821165 0.042082 0.124126 2.230610 0.071268 0.248907 0.797787 0.040701 0.123657 0.308542 0.154790 0.221671 0.168941 0.196760 0.130800 0.300075 -0.013287 -0.003961 -0.300674 0.427931 -0.007334 0.820017 0.291881 -0.000417 0.550446 0.207459 0.229298 0.023282 -2.445824 0.744489 0.626729 0.680504 -0.368464 0.011669 0.010667 0.081012 2.045038 1.093382 1.028119 0.530354 -0.221894 0.000000 0.000000 1.162748 3.496162 1.947812 0.329506 0.196497 0.065412 4.392478 0.356282 1.646045 0.114906 1.857955 0.341312 0.075460 0.046775 0.122999 2.650930 1.555602 2.847754 0.369487 0.000000 0.000000 3.682951 0.612764 3.652815
